<svg width="150" height="150" viewBox="0 0 150 150" fill="none" xmlns="http://www.w3.org/2000/svg">
<circle cx="75" cy="75" r="75" fill="white"/>
<path d="M74.9 65.2C85.4486 65.2 94 56.6486 94 46.1C94 35.5514 85.4486 27 74.9 27C64.3513 27 55.8 35.5514 55.8 46.1C55.8 56.6486 64.3513 65.2 74.9 65.2Z" fill="#D5E806"/>
<path d="M106.8 100.8C106.8 103.5 102.1 105.5 95.3 106.8C95.2 95.6 86.1 86.5 74.9 86.5C63.7 86.5 54.6 95.6 54.5 106.7C47.7 105.4 43 103.5 43 100.7C43 86 48 73.3 58.2 66.8C58.7 66.5 59.3 66.5 59.8 66.9C64.1 70 69.3 71.9 75 71.9C80.7 71.9 86 70.1 90.2 66.9C90.7 66.6 91.3 66.5 91.8 66.8C101.8 73.4 106.8 86.1 106.8 100.8Z" fill="#D5E806"/>
<path d="M90.2 107.1C90.2 115.44 83.44 122.2 75.1 122.2C66.76 122.2 60 115.44 60 107.1C60 98.76 66.76 92 75.1 92C83.4387 92 90.2 98.7613 90.2 107.1ZM85.1559 102.716C85.152 101.474 84.4558 100.605 83.4633 100.423C82.6946 100.282 82.0308 100.494 81.4692 101.056C78.7207 103.812 75.9683 106.566 73.2107 109.314C72.6349 109.889 72.8277 109.915 72.2014 109.301C71.0963 108.221 70.0209 107.11 68.9262 106.019C68.428 105.523 67.825 105.25 67.1133 105.345C66.2243 105.466 65.6018 105.955 65.3262 106.819C65.0583 107.66 65.2848 108.395 65.9008 109.011C67.8327 110.947 69.7673 112.879 71.7032 114.811C72.2868 115.393 73.1175 115.395 73.7102 114.819C74.0324 114.506 74.3469 114.185 74.6639 113.868C77.9313 110.6 81.1975 107.33 84.47 104.067C84.91 103.627 85.1494 103.117 85.1559 102.716Z" fill="#006E52"/>
</svg>
