<svg width="150" height="150" viewBox="0 0 150 150" fill="none" xmlns="http://www.w3.org/2000/svg">
<circle cx="75" cy="75" r="75" fill="white"/>
<path d="M32.6493 80.0693L36.8393 85.5393L35.9293 92.1993C35.6886 93.9742 36.0505 95.7785 36.9571 97.3232C37.8636 98.868 39.2624 100.064 40.9293 100.719L47.1993 103.199L49.7193 109.499C50.3747 111.166 51.5706 112.565 53.1153 113.471C54.6601 114.378 56.4644 114.74 58.2393 114.499L64.8793 113.579L70.3493 117.769C71.7455 118.839 73.4554 119.419 75.2143 119.419C76.9731 119.419 78.683 118.839 80.0793 117.769L85.5493 113.579L92.1893 114.499C93.9641 114.74 95.7685 114.378 97.3132 113.471C98.858 112.565 100.054 111.166 100.709 109.499L103.199 103.199L109.499 100.679C111.166 100.024 112.565 98.828 113.471 97.2832C114.378 95.7385 114.74 93.9342 114.499 92.1593L113.579 85.5193L117.769 80.0493C118.839 78.653 119.419 76.9431 119.419 75.1843C119.419 73.4254 118.839 71.7155 117.769 70.3193L113.579 64.8493L114.469 58.1993C114.71 56.4244 114.348 54.6201 113.441 53.0753C112.535 51.5306 111.136 50.3347 109.469 49.6793L103.199 47.1993L100.679 40.8993C100.024 39.2324 98.828 37.8336 97.2832 36.9271C95.7385 36.0205 93.9342 35.6586 92.1593 35.8993L85.5193 36.8193L80.0593 32.6493C78.663 31.5797 76.9531 31 75.1943 31C73.4354 31 71.7255 31.5797 70.3293 32.6493L64.8593 36.8393L58.1993 35.9293C56.4244 35.6886 54.6201 36.0505 53.0753 36.9571C51.5306 37.8636 50.3347 39.2624 49.6793 40.9293L47.1993 47.1993L40.8993 49.7193C39.2324 50.3747 37.8336 51.5706 36.9271 53.1153C36.0205 54.6601 35.6586 56.4644 35.8993 58.2393L36.8193 64.8793L32.6493 70.3393C31.5797 71.7355 31 73.4454 31 75.2043C31 76.9631 31.5797 78.673 32.6493 80.0693ZM43.1993 69.7293C43.8472 68.884 44.3198 67.9179 44.5894 66.8876C44.859 65.8573 44.9201 64.7835 44.7693 63.7293L43.8493 57.0893L50.1993 54.6093C51.1922 54.2069 52.0942 53.6093 52.8517 52.8517C53.6093 52.0942 54.2069 51.1922 54.6093 50.1993L57.1293 43.8993L63.7693 44.8193C64.8235 44.9662 65.8964 44.9031 66.9261 44.6337C67.9559 44.3642 68.9221 43.8937 69.7693 43.2493L75.1993 38.9993L80.6693 43.1993C81.5145 43.8472 82.4806 44.3198 83.5109 44.5894C84.5412 44.859 85.615 44.9201 86.6693 44.7693L93.2993 43.8493L95.7893 50.1993C96.1916 51.1922 96.7893 52.0942 97.5468 52.8517C98.3044 53.6093 99.2064 54.2069 100.199 54.6093L106.499 57.1293L105.589 63.7593C105.438 64.8135 105.5 65.8873 105.769 66.9176C106.039 67.9479 106.511 68.914 107.159 69.7593L111.389 75.1993L107.199 80.6693C106.55 81.5138 106.075 82.4795 105.804 83.5099C105.533 84.5402 105.47 85.6143 105.619 86.6693L106.539 93.3093L100.199 95.7793C99.2054 96.1827 98.3029 96.782 97.5453 97.5413C96.7877 98.3006 96.1905 99.2045 95.7893 100.199L93.2693 106.499L86.6293 105.579C85.575 105.432 84.5022 105.495 83.4724 105.765C82.4427 106.034 81.4764 106.505 80.6293 107.149L75.1993 111.389L69.7293 107.199C68.3269 106.13 66.6126 105.551 64.8493 105.549C64.4881 105.548 64.1273 105.572 63.7693 105.619L57.1293 106.539L54.6093 100.199C54.2069 99.2064 53.6093 98.3044 52.8517 97.5468C52.0942 96.7893 51.1922 96.1916 50.1993 95.7893L43.8993 93.2693L44.8093 86.6393C44.9601 85.585 44.899 84.5112 44.6294 83.4809C44.3598 82.4506 43.8872 81.4845 43.2393 80.6393L39.0093 75.1993L43.1993 69.7293Z" fill="#D5E806"/>
<path d="M68.8093 89.1993C69.6159 89.8595 70.6483 90.1787 71.6868 90.0891C72.7253 89.9994 73.6877 89.5079 74.3693 88.7193L93.0693 67.0193C93.425 66.6233 93.6982 66.1603 93.8727 65.6574C94.0473 65.1545 94.1197 64.6218 94.0857 64.0906C94.0517 63.5593 93.9121 63.0402 93.6749 62.5636C93.4377 62.0871 93.1078 61.6626 92.7044 61.3152C92.3011 60.9678 91.8325 60.7044 91.326 60.5404C90.8196 60.3764 90.2855 60.3152 89.7551 60.3603C89.2247 60.4053 88.7086 60.5558 88.2371 60.8029C87.7656 61.05 87.3482 61.3888 87.0093 61.7993L70.8493 80.5293L62.8493 73.9993C62.0216 73.3923 60.9922 73.1266 59.9742 73.2574C58.9561 73.3881 58.0273 73.9052 57.3798 74.7017C56.7324 75.4981 56.4159 76.513 56.4958 77.5363C56.5758 78.5596 57.046 79.513 57.8093 80.1993L68.8093 89.1993Z" fill="#D5E806"/>
<circle cx="104" cy="104" r="12.5" fill="#006E52" stroke="white" stroke-width="5"/>
</svg>
