<svg width="150" height="150" viewBox="0 0 150 150" fill="none" xmlns="http://www.w3.org/2000/svg">
<circle cx="75" cy="75" r="75" fill="white"/>
<path fill-rule="evenodd" clip-rule="evenodd" d="M113.979 57.1981L80.3763 30.3271C78.5083 28.8212 76.1812 28 73.7817 28C71.3823 28 69.0552 28.8212 67.1871 30.3271L33.5847 57.1981C31.8012 58.6332 30.5963 60.6641 30.1915 62.9171C30.0723 63.4935 30.0081 64.0799 30 64.6684V105.987C30.02 107.412 30.3564 108.814 30.9851 110.092L59.9358 84.7533L36.8409 66.3102V64.6684C36.8428 64.2574 36.9373 63.8521 37.1172 63.4825C37.2973 63.113 37.5582 62.7889 37.8807 62.5341L71.4558 35.663C72.1138 35.1298 72.9349 34.8388 73.7817 34.8388C74.6286 34.8388 75.4497 35.1298 76.1077 35.663L109.683 62.5341C110.005 62.7889 110.266 63.113 110.446 63.4825C110.626 63.8521 110.721 64.2574 110.723 64.6684V66.3102L87.6277 84.808L97.8361 93.7234C101.122 90.2018 105.804 88 111 88C113.316 88 115.53 88.4374 117.563 89.2341V64.6684C117.555 64.0799 117.491 63.4935 117.372 62.9171C116.967 60.6641 115.762 58.6332 113.979 57.1981ZM96.2207 95.7224C94.1904 98.6365 93 102.179 93 106C93 108.483 93.5027 110.848 94.4118 113H36.6699C35.3202 113.006 33.9828 112.743 32.7363 112.225L71.4758 78.343C72.148 77.7577 73.0078 77.4329 73.899 77.4274C74.7902 77.4219 75.6539 77.7362 76.3332 78.3131L96.2207 95.7224Z" fill="#D5E806"/>
<path d="M126.2 106.1C126.2 114.44 119.44 121.2 111.1 121.2C102.76 121.2 96 114.44 96 106.1C96 97.76 102.76 91 111.1 91C119.439 91 126.2 97.7613 126.2 106.1ZM121.156 101.716C121.152 100.474 120.456 99.6053 119.463 99.4228C118.695 99.2818 118.031 99.494 117.469 100.056C114.721 102.812 111.968 105.566 109.211 108.314C108.635 108.889 108.828 108.915 108.201 108.301C107.096 107.221 106.021 106.11 104.926 105.019C104.428 104.523 103.825 104.25 103.113 104.345C102.224 104.466 101.602 104.955 101.326 105.819C101.058 106.66 101.285 107.395 101.901 108.011C103.833 109.947 105.767 111.879 107.703 113.811C108.287 114.393 109.118 114.395 109.71 113.819C110.032 113.506 110.347 113.185 110.664 112.868C113.931 109.6 117.197 106.33 120.47 103.067C120.91 102.627 121.149 102.117 121.156 101.716Z" fill="#006E52"/>
</svg>
