<svg width="373" height="640" viewBox="0 0 373 640" fill="none" xmlns="http://www.w3.org/2000/svg">
<path fill-rule="evenodd" clip-rule="evenodd" d="M159.131 1.41445C119.51 6.80345 84.6775 23.6244 55.2095 51.5999C26.3155 79.0309 9.42751 110.637 2.5685 150.116C1.3595 157.075 1.1995 159.422 1 173.116C0.757 189.769 1.0305 193.556 3.455 207.116C5.555 218.863 7.473 226.034 11.162 235.932C17.5465 253.061 24.1575 264.967 36.2105 281.042C48.827 297.868 68.4085 315.47 86.6305 326.366C109.326 339.937 132.03 348.001 158.315 351.827C169.468 353.45 171.56 354.513 172.917 359.245C174.06 363.229 171.656 368.165 152.647 400.866C151.208 403.341 147.819 409.304 145.116 414.116C142.413 418.929 137.465 427.704 134.12 433.616C130.776 439.529 124.926 449.879 121.12 456.616C117.315 463.354 110.566 475.279 106.121 483.116C90.873 510.007 88.985 513.377 86.4355 518.249C84.8595 521.26 83.8805 523.765 83.8805 524.786C83.8805 526.849 85.5475 528.529 88.207 529.146C89.273 529.393 114.545 529.593 144.881 529.593C197.055 529.594 199.725 529.551 201.631 528.671C204.95 527.139 205.202 526.769 213.752 510.866C215.822 507.016 219.027 501.054 220.875 497.616C222.722 494.179 225.617 488.835 227.307 485.741C228.998 482.647 231.731 477.641 233.381 474.616C235.031 471.591 237.764 466.585 239.454 463.491C245.468 452.484 249.614 444.729 254.891 434.616C267.613 410.236 273.953 398.563 291.285 367.616C311.134 332.175 316.887 321.482 341.559 274.171C344.483 268.563 347.101 263.703 347.377 263.37C348.042 262.57 354.73 248.105 358.36 239.616C363.731 227.059 368.878 210.153 370.31 200.366C372.021 188.679 372.229 174.12 370.945 156.116C370.396 148.426 368.791 139.88 367.372 137.099C365.054 132.555 362.873 132.244 351.562 134.841C331.437 139.461 292.728 149.667 289.48 151.209C285.168 153.257 284.639 155.529 285.91 166.563C287.074 176.668 287.103 179.688 286.108 187.387C283.597 206.818 276.206 223.649 263.709 238.399C253.458 250.498 237.082 261.099 220.215 266.555C210.647 269.65 204.873 270.825 193.919 271.906C185.666 272.72 184.782 272.72 177.169 271.898C167.307 270.833 162.72 270.011 155.71 268.049C138.179 263.144 120.569 252.022 109.503 238.866C98.357 225.617 90.9995 210.848 87.254 194.204C86.2845 189.897 85 187.796 85 176C85 161.218 86.5 158.941 90.1615 147.562C97.768 123.926 114.746 104.171 138.381 91.4575C147.55 86.5255 160.898 82.2494 170.492 81.1709C179.365 80.1731 187.361 79.9357 196.131 80.5894C199.431 80.8359 204.702 81.6309 207.845 82.3559C215.647 84.1559 218.064 83.6364 220.067 79.7269C220.749 78.3959 224.42 66.1044 229.656 47.6164C231.097 42.5289 233.874 32.8539 235.827 26.1164C237.938 18.8324 239.378 12.9309 239.379 11.5589C239.382 6.98145 237.131 5.81195 223.631 3.37795C209.376 0.807946 206.555 0.612446 184.663 0.675446C170.441 0.716446 162.594 0.943447 159.131 1.41445Z" fill="#006E52"/>
<path d="M252.381 19.8875C252.381 18.0545 254.256 15.366 256.09 14.5705C256.662 14.3219 258.728 14.1945 260.68 14.2875C264.072 14.449 264.651 14.6775 273.68 19.41C305.792 36.2415 325.068 53.6805 345.926 84.7685C354.957 98.2295 359.381 107.74 359.381 113.696C359.381 116.465 359.239 116.858 357.681 118.417C355.718 120.379 353.431 120.662 350.553 119.296C348.178 118.169 346.86 116.261 344.114 109.976C341.246 103.409 336.101 94.345 330.861 86.6275C314.474 62.4935 290.705 42.0204 266.404 31.1084C256.565 26.69 252.381 23.3425 252.381 19.8875Z" fill="#D5E806"/>
<path d="M239.884 54.1165C239.884 52.288 241.507 49.9285 243.441 48.9435C246.136 47.5719 248.812 48.2005 256.631 52.0415C273.307 60.233 290.762 74.1495 303.132 89.1165C308.76 95.9255 316.548 107.87 320.015 115.011C322.428 119.979 323.048 121.771 323.257 124.369C323.51 127.52 323.481 127.617 321.748 129.35C320.246 130.851 319.641 131.117 317.72 131.117C315.935 131.117 315.002 130.77 313.295 129.472C311.514 128.119 310.423 126.46 307.131 120.097C302.188 110.545 300.245 107.351 295.465 100.921C290.71 94.5249 278.087 81.8689 271.881 77.2749C267.017 73.675 254.498 65.9455 249.131 63.229C243.116 60.1845 239.884 57 239.884 54.1165Z" fill="#D5E806"/>
<path d="M228.881 87.103C228.881 84.3956 230.087 82.1969 232.038 81.3484C232.914 80.9675 234.257 80.647 235.022 80.636C239.431 80.574 253.013 88.4736 262.131 96.4025C268.808 102.21 272.424 106.113 278.116 113.66C286.136 124.295 289.845 131.178 289.869 135.474C289.89 139.258 285.816 142.457 282.369 141.363C280.223 140.681 277.323 137.414 273.774 131.679C262.5 113.459 253.96 105.003 237.976 96.24C231.532 92.707 228.881 90.0435 228.881 87.103Z" fill="#D5E806"/>
<path d="M152.826 134.154C159.524 129.605 168.524 125.872 176.393 124.378C178.932 123.896 182.696 123.719 188.131 123.825C197.089 124.002 202.012 125.018 209.789 128.298C214.318 130.209 222.143 135.231 226.246 138.862C232.432 144.337 239.686 156 241.637 163.607C243.999 172.817 244.407 179.325 243.095 186.867C239.995 204.69 228.645 219.133 211.273 227.362C203.681 230.959 198.472 232.179 189.394 232.484C180.206 232.793 175.23 232.178 168.083 229.852C147.351 223.103 133.105 206.975 129.573 186.252C127.447 173.782 130.828 159.074 138.192 148.754C141.224 144.505 148.985 136.762 152.826 134.154Z" fill="#D5E806"/>
<path d="M58.17 594.84V636C58.17 637.105 57.2746 638 56.17 638H46.52C45.4154 638 44.52 637.105 44.52 636V596.66C44.52 594.493 44.13 592.37 43.35 590.29C42.57 588.21 41.0533 586.477 38.8 585.09C36.6333 583.703 33.3833 583.01 29.05 583.01C26.6233 583.01 24.24 583.227 21.9 583.66C20.1058 584.005 18.3391 584.46 16.5999 585.025C15.7977 585.285 15.27 586.042 15.27 586.886V636C15.27 637.105 14.3746 638 13.27 638H3.62C2.51543 638 1.62 637.105 1.62 636V579.281C1.62 578.537 2.03181 577.85 2.70217 577.526C6.30793 575.783 10.6272 574.361 15.66 573.26C21.2933 571.96 26.71 571.31 31.91 571.31C39.7468 571.31 45.739 572.712 49.8865 575.516C50.5176 575.942 51.3244 576.04 52.0206 575.73C55.137 574.346 58.3568 573.306 61.68 572.61C65.4067 571.743 69.09 571.31 72.73 571.31C81.9167 571.31 88.59 573.26 92.75 577.16C96.91 580.973 98.99 586.867 98.99 594.84V636C98.99 637.105 98.0946 638 96.99 638H87.34C86.2354 638 85.34 637.105 85.34 636V596.66C85.34 594.493 84.95 592.37 84.17 590.29C83.39 588.21 81.8733 586.477 79.62 585.09C77.4533 583.703 74.2033 583.01 69.87 583.01C65.8567 583.01 62.0839 583.938 58.5517 585.794C57.7724 586.203 57.4128 587.102 57.578 587.967C57.9727 590.032 58.17 592.323 58.17 594.84Z" fill="#006E52"/>
<path d="M142.34 639.95C131.767 639.95 123.88 636.96 118.68 630.98C113.567 625 111.01 616.463 111.01 605.37C111.01 593.67 113.653 585.047 118.94 579.5C124.313 573.953 132.07 571.18 142.21 571.18C152.87 571.18 160.8 574.17 166 580.15C171.2 586.043 173.8 594.45 173.8 605.37C173.8 616.377 171.07 624.913 165.61 630.98C160.15 636.96 152.393 639.95 142.34 639.95ZM142.21 628.38C148.797 628.38 153.433 626.257 156.12 622.01C158.807 617.763 160.15 612.217 160.15 605.37C160.15 597.917 158.763 592.283 155.99 588.47C153.217 584.57 148.623 582.62 142.21 582.62C135.623 582.62 131.03 584.657 128.43 588.73C125.83 592.717 124.53 598.263 124.53 605.37C124.53 612.563 125.873 618.197 128.56 622.27C131.247 626.343 135.797 628.38 142.21 628.38Z" fill="#006E52"/>
<path d="M213.206 639.95C208.526 639.95 204.063 639.517 199.816 638.65C195.656 637.87 192.233 636.44 189.546 634.36C186.946 632.193 185.646 629.117 185.646 625.13V548.61C185.646 547.505 186.542 546.61 187.646 546.61H197.166C198.271 546.61 199.166 547.505 199.166 548.61V572.104C199.166 573.591 200.739 574.571 202.128 574.04C203.922 573.354 205.838 572.791 207.876 572.35C211.083 571.657 213.77 571.31 215.936 571.31C225.816 571.31 233.226 574.257 238.166 580.15C243.106 586.043 245.576 594.233 245.576 604.72C245.576 611.827 244.623 617.677 242.716 622.27C240.896 626.863 238.426 630.46 235.306 633.06C232.273 635.573 228.806 637.35 224.906 638.39C221.093 639.43 217.193 639.95 213.206 639.95ZM212.556 628.12C217.67 628.12 221.613 627.08 224.386 625C227.16 622.92 229.066 620.147 230.106 616.68C231.146 613.213 231.666 609.4 231.666 605.24C231.666 598.047 230.193 592.543 227.246 588.73C224.3 584.83 219.836 582.88 213.856 582.88C211.603 582.88 209.133 583.183 206.446 583.79C204.16 584.306 202.061 585.074 200.151 586.092C199.532 586.423 199.166 587.08 199.166 587.782V621.75C199.166 623.483 199.86 624.827 201.246 625.78C202.633 626.647 204.323 627.253 206.316 627.6C208.396 627.947 210.476 628.12 212.556 628.12Z" fill="#006E52"/>
<path d="M259.927 638C258.823 638 257.927 637.105 257.927 636V581.5C257.927 580.395 258.823 579.5 259.927 579.5H269.507C270.609 579.5 271.503 580.391 271.507 581.493L271.7 635.993C271.704 637.1 270.807 638 269.7 638H259.927Z" fill="#006E52"/>
<path d="M300.927 636C300.927 637.105 300.031 638 298.927 638H289.407C288.302 638 287.407 637.105 287.407 636V550.04C287.407 548.935 288.302 548.04 289.407 548.04H298.927C300.031 548.04 300.927 548.935 300.927 550.04V636Z" fill="#006E52"/>
<path d="M344.341 639.95C334.721 639.95 327.051 637.047 321.331 631.24C315.697 625.347 312.881 616.853 312.881 605.76C312.881 594.407 315.524 585.827 320.811 580.02C326.184 574.127 333.637 571.18 343.171 571.18C350.191 571.18 355.867 572.74 360.201 575.86C364.534 578.98 367.654 583.357 369.561 588.99C371.376 594.041 372.328 599.881 372.419 606.513C372.434 607.608 371.539 608.49 370.444 608.49H328.67C327.513 608.49 326.59 609.472 326.736 610.62C327.417 615.998 329.255 620.185 332.251 623.18C335.631 626.473 340.397 628.12 346.551 628.12C350.884 628.12 354.827 627.6 358.381 626.56C360.666 625.852 362.73 625.094 364.571 624.284C365.965 623.671 367.611 624.655 367.611 626.178V634.23C367.611 635.021 367.147 635.741 366.415 636.04C363.612 637.185 360.544 638.098 357.211 638.78C353.397 639.56 349.107 639.95 344.341 639.95ZM342.781 582.36C338.361 582.36 334.807 583.53 332.121 585.87C329.78 587.833 328.162 591.244 327.269 596.103C327.051 597.289 327.988 598.35 329.194 598.35H356.314C357.493 598.35 358.423 597.334 358.241 596.17C357.547 591.735 356.077 588.431 353.831 586.26C351.317 583.66 347.634 582.36 342.781 582.36Z" fill="#006E52"/>
<path d="M270.56 559.28C270.56 563.301 267.301 566.56 263.28 566.56C259.259 566.56 256 563.301 256 559.28C256 555.259 259.259 552 263.28 552C267.301 552 270.56 555.259 270.56 559.28Z" fill="#006E52"/>
</svg>
