<svg width="150" height="150" viewBox="0 0 150 150" fill="none" xmlns="http://www.w3.org/2000/svg">
<circle cx="75" cy="75" r="75" fill="white"/>
<path d="M74.9 65.2C85.4486 65.2 94 56.6486 94 46.1C94 35.5514 85.4486 27 74.9 27C64.3514 27 55.8 35.5514 55.8 46.1C55.8 56.6486 64.3514 65.2 74.9 65.2Z" fill="#D5E806"/>
<path d="M106.8 100.8C106.8 103.5 102.1 105.5 95.3 106.8C95.2 95.6 86.1 86.5 74.9 86.5C63.7 86.5 54.6 95.6 54.5 106.7C47.7 105.4 43 103.5 43 100.7C43 86 48 73.3 58.2 66.8C58.7 66.5 59.3 66.5 59.8 66.9C64.1 70 69.3 71.9 75 71.9C80.7 71.9 86 70.1 90.2 66.9C90.7 66.6 91.3 66.5 91.8 66.8C101.8 73.4 106.8 86.1 106.8 100.8Z" fill="#D5E806"/>
<path d="M74.9 91.9C66.6 91.9 59.8 98.6 59.8 107C59.8 115.3 66.5 122.1 74.9 122.1C83.2 122.1 90 115.4 90 107C90 98.6 83.2 91.9 74.9 91.9ZM81 108.9H76.9V113C76.9 114.1 76 115 74.9 115C73.8 115 72.9 114.1 72.9 113V108.9H68.8C67.7 108.9 66.8 108 66.8 106.9C66.8 105.8 67.7 104.9 68.8 104.9H72.9V100.8C72.9 99.7 73.8 98.8 74.9 98.8C76 98.8 76.9 99.7 76.9 100.8V104.9H81C82.1 104.9 83 105.8 83 106.9C83 108 82.1 108.9 81 108.9Z" fill="#006E52"/>
</svg>
