<svg width="150" height="150" viewBox="0 0 150 150" fill="none" xmlns="http://www.w3.org/2000/svg">
<circle cx="75" cy="75" r="75" fill="white"/>
<path d="M33.1179 96.5475L19.1596 109.344C18.9468 109.539 18.9468 109.889 19.1596 110.084L33.1179 122.88C33.4167 123.154 33.8807 122.929 33.8807 122.51V113.608H63.7134C71.8246 113.608 78.4 106.634 78.4 98.0315V88.9C78.4 87.8247 78.3139 87.8 77.3 87.8H72.35C71.3361 87.8 71.0566 87.8247 71.0566 88.9V98.0315C71.0566 102.333 67.769 105.82 63.7134 105.82H33.8807V96.9176C33.8807 96.4986 33.4167 96.2735 33.1179 96.5475Z" fill="#006E52"/>
<path d="M63.452 48.0505C63.6536 48.0505 63.8346 47.9268 63.9078 47.7389L68.6134 35.6668C68.7385 35.3461 68.502 35 68.1577 35H52.6272C52.4939 35 52.3664 35.0544 52.2743 35.1505L40.6907 47.2227C40.3924 47.5336 40.6127 48.0505 41.0437 48.0505H63.452Z" fill="#D5E806"/>
<path d="M85.819 48.0505H108.208C108.639 48.0505 108.859 47.5336 108.561 47.2227L96.9773 35.1505C96.8851 35.0544 96.7576 35 96.6244 35H81.1133C80.769 35 80.5325 35.3461 80.6575 35.6668L85.3633 47.7389C85.4365 47.9268 85.6174 48.0505 85.819 48.0505Z" fill="#D5E806"/>
<path d="M108.384 101.146C108.462 101.068 108.561 100.989 108.639 100.891C109.072 100.379 109.347 99.7109 109.347 98.9637V52.4624C109.347 52.1871 109.131 51.9708 108.856 51.9708H85.9687C85.6934 51.9708 85.4771 52.1871 85.4771 52.4624V68.3298C85.4771 68.6444 85.1035 68.8214 84.8676 68.6051L74.8791 59.2656C74.7414 59.1279 74.5252 59.1279 74.3875 59.2656L64.3795 68.6051C64.1632 68.8214 63.7897 68.6444 63.7897 68.3298V52.4624C63.7897 52.1871 63.5733 51.9708 63.2981 51.9708H40.3719C40.1163 51.9708 39.9 52.1871 39.9 52.4624V98.9637C39.9 99.6912 40.1753 100.36 40.6078 100.891C40.6865 100.969 40.7848 101.068 40.8831 101.146C41.3943 101.598 42.0628 101.874 42.7903 101.874H66.7783V90.6662C66.7783 87.422 69.4131 84.7675 72.6769 84.7675H76.5897C79.834 84.7675 82.4688 87.422 82.4688 90.6662V101.874H106.476C107.224 101.874 107.892 101.598 108.384 101.146Z" fill="#D5E806"/>
</svg>
