<svg width="150" height="150" viewBox="0 0 150 150" fill="none" xmlns="http://www.w3.org/2000/svg">
<circle cx="75" cy="75" r="75" fill="white"/>
<path fill-rule="evenodd" clip-rule="evenodd" d="M64.0863 48.818C64.0069 49.0217 63.8106 49.1559 63.5919 49.1559H39.2856C38.8181 49.1559 38.5791 48.5952 38.9027 48.258L51.4674 35.1632C51.5674 35.059 51.7056 35 51.8502 35H68.6962C69.0696 35 69.3262 35.3754 69.1906 35.7232L64.0863 48.818ZM112.139 49.1559H87.8535C87.6348 49.1559 87.4386 49.0217 87.3592 48.818L82.2549 35.7232C82.1192 35.3754 82.3758 35 82.7493 35H99.5741C99.7186 35 99.8569 35.059 99.9569 35.1632L112.521 48.258C112.845 48.5952 112.606 49.1559 112.139 49.1559ZM112.329 84.7042C111.175 84.4573 109.977 84.3274 108.749 84.3274C99.3378 84.3274 91.7085 91.9566 91.7085 101.368C91.7085 103.248 92.0131 105.057 92.5756 106.749H40.1351C39.346 106.749 38.6209 106.45 38.0664 105.96C37.9613 105.876 37.8561 105.771 37.7713 105.686L37.7712 105.686L37.7678 105.683C37.2986 105.107 37 104.382 37 103.592V53.1523C37 52.8537 37.2346 52.6192 37.5118 52.6192H62.38C62.6785 52.6192 62.9132 52.8537 62.9132 53.1523V70.3638C62.9132 70.705 63.3184 70.897 63.553 70.6624L74.4087 60.5318C74.558 60.3825 74.7926 60.3825 74.9419 60.5318L85.7764 70.6624C86.0324 70.897 86.4376 70.705 86.4376 70.3638V53.1523C86.4376 52.8537 86.6722 52.6192 86.9708 52.6192H111.796C112.095 52.6192 112.329 52.8537 112.329 53.1523V84.7042Z" fill="#D5E806"/>
<path d="M122.381 101.457C122.381 108.937 116.318 115 108.839 115C101.359 115 95.296 108.937 95.296 101.457C95.296 93.9776 101.359 87.9148 108.839 87.9148C116.317 87.9148 122.381 93.9787 122.381 101.457ZM117.857 97.5254C117.854 96.4113 117.229 95.6325 116.339 95.4689C115.65 95.3424 115.055 95.5327 114.551 96.0364C112.086 98.5084 109.617 100.978 107.144 103.443C106.628 103.958 106.801 103.982 106.239 103.432C105.248 102.462 104.283 101.467 103.302 100.488C102.855 100.043 102.314 99.7978 101.676 99.8837C100.878 99.9916 100.32 100.43 100.073 101.206C99.8326 101.96 100.036 102.619 100.588 103.172C102.321 104.908 104.056 106.64 105.792 108.373C106.316 108.895 107.061 108.897 107.592 108.38C107.881 108.099 108.163 107.811 108.447 107.527C111.378 104.597 114.307 101.664 117.242 98.737C117.637 98.3424 117.851 97.8852 117.857 97.5254Z" fill="#006E52"/>
</svg>
