<svg width="150" height="150" viewBox="0 0 150 150" fill="none" xmlns="http://www.w3.org/2000/svg">
<circle cx="75" cy="75" r="75" fill="white"/>
<path d="M107.948 75.407H104.994V64.7343C104.994 58.9215 100.23 54.157 94.417 54.157H93.083V46.8195C93.083 37.0045 85.0785 29 75.2635 29C65.4484 29 57.4439 37.0045 57.4439 46.8195V54.157H56.1099C50.2971 54.157 45.5325 58.9215 45.5325 64.7343V75.407H42.5785C35.6222 75.407 30 81.1244 30 87.9854V101.422C30 108.378 35.6222 114 42.5785 114H107.948C114.905 114 120.527 108.378 120.527 101.422V87.9854C120.527 81.1244 114.905 75.407 107.948 75.407ZM64.3049 46.9148C64.3049 40.9114 69.2601 35.9563 75.2635 35.9563C81.2668 35.9563 86.222 40.9114 86.222 46.9148V54.2522H64.3049V46.9148ZM113.666 101.517C113.666 104.661 111.093 107.234 107.948 107.234H42.5785C39.4339 107.234 36.861 104.661 36.861 101.517V87.9854C36.861 84.8408 39.4339 82.2679 42.5785 82.2679H107.948C111.093 82.2679 113.666 84.8408 113.666 87.9854V101.517Z" fill="#D5E806"/>
<path d="M49.5348 100.373C52.6398 100.373 55.1569 97.8562 55.1569 94.7511C55.1569 91.6461 52.6398 89.1289 49.5348 89.1289C46.4297 89.1289 43.9126 91.6461 43.9126 94.7511C43.9126 97.8562 46.4297 100.373 49.5348 100.373Z" fill="#006E52"/>
<path d="M66.6872 100.373C69.7923 100.373 72.3094 97.8562 72.3094 94.7511C72.3094 91.6461 69.7923 89.1289 66.6872 89.1289C63.5822 89.1289 61.065 91.6461 61.065 94.7511C61.065 97.8562 63.5822 100.373 66.6872 100.373Z" fill="#006E52"/>
<path d="M83.8397 100.373C86.9447 100.373 89.4619 97.8562 89.4619 94.7511C89.4619 91.6461 86.9447 89.1289 83.8397 89.1289C80.7346 89.1289 78.2175 91.6461 78.2175 94.7511C78.2175 97.8562 80.7346 100.373 83.8397 100.373Z" fill="#006E52"/>
<path d="M100.992 100.373C104.097 100.373 106.614 97.8562 106.614 94.7511C106.614 91.6461 104.097 89.1289 100.992 89.1289C97.8871 89.1289 95.37 91.6461 95.37 94.7511C95.37 97.8562 97.8871 100.373 100.992 100.373Z" fill="#006E52"/>
</svg>
