<svg width="150" height="150" viewBox="0 0 150 150" fill="none" xmlns="http://www.w3.org/2000/svg">
<circle cx="75" cy="75" r="75" fill="white"/>
<path d="M37.5812 36.397C33.3162 36.517 32.6332 42.959 36.7692 44.086L42.1602 45.991L48.4982 79.063C49.2582 83.023 50.5182 86.602 52.2692 89.684C54.8522 94.222 59.3322 97.572 64.8572 97.572H92.3052C97.2582 97.665 97.2582 89.736 92.3052 89.83H64.8572C60.9522 89.329 59.3322 87.357 57.9002 84.473H94.1282C97.4522 84.473 99.1652 81.49 100.124 78.108C101.019 74.963 100.733 74.953 98.5872 75.25C97.7952 75.339 96.9932 75.385 96.1812 75.385C83.9472 75.385 73.9092 65.333 73.9092 53.079C73.9092 51.795 73.9092 50.517 74.2332 49.318C75.0092 46.418 73.4872 45.854 70.7422 45.854L49.9662 45.87L48.5702 41.593C48.1952 40.319 47.2282 39.344 46.0142 38.994L37.5812 36.397Z" fill="#D5E806"/>
<path d="M90.1332 101.521C86.8892 101.521 84.2642 104.154 84.2642 107.404C84.2642 110.65 86.8892 113.282 90.1332 113.282C93.3782 113.282 96.0092 110.649 96.0092 107.404C96.0092 104.154 93.3782 101.521 90.1332 101.521ZM66.7282 101.521C63.4822 101.521 60.8522 104.154 60.8522 107.404C60.8522 110.65 63.4832 113.282 66.7282 113.282C69.9712 113.282 72.6022 110.649 72.6022 107.404C72.6022 104.154 69.9722 101.521 66.7282 101.521Z" fill="#006E52"/>
<path fill-rule="evenodd" clip-rule="evenodd" d="M79 53.079C79 43.647 86.635 36 96.052 36C105.468 36 113.104 43.648 113.104 53.079C113.104 62.511 105.468 70.158 96.052 70.158C86.635 70.158 79 62.511 79 53.079ZM94.209 53.8398C93.8991 54.5964 93.7441 55.6126 93.7441 56.8887H97.2441L97.2988 56.0547C97.3991 55.1615 97.7956 54.3822 98.4883 53.7168L99.5957 52.6641C100.462 51.8255 101.068 51.0645 101.414 50.3809C101.76 49.6882 101.934 48.9544 101.934 48.1797C101.934 46.4753 101.4 45.1582 100.334 44.2285C99.2676 43.2897 97.7682 42.8203 95.8359 42.8203C93.9219 42.8203 92.4089 43.3125 91.2969 44.2969C90.194 45.2812 89.6335 46.6439 89.6152 48.3848H93.5801C93.5983 47.6556 93.8079 47.0859 94.209 46.6758C94.6191 46.2565 95.1615 46.0469 95.8359 46.0469C97.2578 46.0469 97.9688 46.8171 97.9688 48.3574C97.9688 48.8678 97.832 49.3555 97.5586 49.8203C97.2852 50.276 96.7337 50.873 95.9043 51.6113C95.084 52.3405 94.5189 53.0833 94.209 53.8398ZM93.9629 59.582C93.5527 59.974 93.3477 60.4753 93.3477 61.0859C93.3477 61.6875 93.5482 62.1842 93.9492 62.5762C94.3594 62.9681 94.8971 63.1641 95.5625 63.1641C96.2279 63.1641 96.7611 62.9681 97.1621 62.5762C97.5723 62.1842 97.7773 61.6875 97.7773 61.0859C97.7773 60.4753 97.5677 59.974 97.1484 59.582C96.7383 59.181 96.2096 58.9805 95.5625 58.9805C94.9154 58.9805 94.3822 59.181 93.9629 59.582Z" fill="#006E52"/>
</svg>
