<svg width="150" height="150" viewBox="0 0 150 150" fill="none" xmlns="http://www.w3.org/2000/svg">
<circle cx="75" cy="75" r="75" fill="white"/>
<path d="M103.728 44.863C104.107 44.874 104.472 45.014 104.748 45.285L106.081 46.626C106.712 47.257 106.633 48.347 105.909 49.072L94.1492 60.846C93.5812 61.413 92.4982 61.462 91.8832 60.846L86.4462 55.399C85.7222 54.674 85.6432 53.585 86.2682 52.953L87.6072 51.618C88.2322 50.987 89.3202 51.065 90.0452 51.795L93.0182 54.769L102.305 45.462C102.717 45.055 103.237 44.852 103.728 44.863ZM96.1762 36C86.7592 36 79.1242 43.647 79.1242 53.079C79.1242 62.511 86.7592 70.158 96.1762 70.158C105.592 70.158 113.228 62.511 113.228 53.079C113.228 43.648 105.592 36 96.1762 36Z" fill="#006E52"/>
<path d="M37.5812 36.397C33.3162 36.517 32.6332 42.959 36.7692 44.086L42.1602 45.991L48.4982 79.063C49.2582 83.023 50.5182 86.602 52.2692 89.684C54.8522 94.222 59.3322 97.572 64.8572 97.572H92.3052C97.2582 97.665 97.2582 89.736 92.3052 89.83H64.8572C60.9522 89.329 59.3322 87.357 57.9002 84.473H94.1282C97.4522 84.473 99.1652 81.49 100.124 78.108C101.019 74.963 100.733 74.953 98.5872 75.25C97.7952 75.339 96.9932 75.385 96.1812 75.385C83.9472 75.385 73.9092 65.333 73.9092 53.079C73.9092 51.795 73.9092 50.517 74.2332 49.318C75.0092 46.418 73.4872 45.854 70.7422 45.854L49.9662 45.87L48.5702 41.593C48.1952 40.319 47.2282 39.344 46.0142 38.994L37.5812 36.397Z" fill="#D5E806"/>
<path d="M90.1332 101.521C86.8892 101.521 84.2642 104.154 84.2642 107.404C84.2642 110.65 86.8892 113.282 90.1332 113.282C93.3782 113.282 96.0092 110.649 96.0092 107.404C96.0092 104.154 93.3782 101.521 90.1332 101.521ZM66.7282 101.521C63.4822 101.521 60.8522 104.154 60.8522 107.404C60.8522 110.65 63.4832 113.282 66.7282 113.282C69.9712 113.282 72.6022 110.649 72.6022 107.404C72.6022 104.154 69.9722 101.521 66.7282 101.521Z" fill="#006E52"/>
</svg>
