<svg width="150" height="150" viewBox="0 0 150 150" fill="none" xmlns="http://www.w3.org/2000/svg">
<circle cx="75" cy="75" r="75" fill="white"/>
<path d="M70 77.5H57.5C56.12 77.5 55 78.6175 55 80V90H37.5C36.12 90 35 91.1175 35 92.5V112.5C35 113.882 36.12 115 37.5 115H57.5C58.88 115 60 113.882 60 112.5V95H70C71.38 95 72.5 93.8825 72.5 92.5V80C72.5 78.6175 71.38 77.5 70 77.5ZM55 110H40V95H55V110ZM67.5 90H60V82.5H67.5V90ZM35 80C35 78.6175 36.12 77.5 37.5 77.5H47.5C48.88 77.5 50 78.6175 50 80C50 81.3825 48.88 82.5 47.5 82.5H37.5C36.12 82.5 35 81.3825 35 80ZM50 105H45V100H50V105ZM72.5 100V112.5C72.5 113.882 71.38 115 70 115H65C63.62 115 62.5 113.882 62.5 112.5C62.5 111.118 63.62 110 65 110H67.5V100C67.5 98.6175 68.62 97.5 70 97.5C71.38 97.5 72.5 98.6175 72.5 100Z" fill="#006E52"/>
<path d="M70 35H37.5C36.12 35 35 36.1175 35 37.5V70C35 71.3825 36.12 72.5 37.5 72.5H70C71.38 72.5 72.5 71.3825 72.5 70V37.5C72.5 36.1175 71.38 35 70 35ZM67.5 67.5H40V40H67.5V67.5ZM47.5 62.5H60C61.38 62.5 62.5 61.3825 62.5 60V47.5C62.5 46.1175 61.38 45 60 45H47.5C46.12 45 45 46.1175 45 47.5V60C45 61.3825 46.12 62.5 47.5 62.5ZM50 50H57.5V57.5H50V50ZM112.5 35H80C78.62 35 77.5 36.1175 77.5 37.5V70C77.5 71.3825 78.62 72.5 80 72.5H112.5C113.88 72.5 115 71.3825 115 70V37.5C115 36.1175 113.88 35 112.5 35ZM110 67.5H82.5V40H110V67.5ZM90 62.5H102.5C103.88 62.5 105 61.3825 105 60V47.5C105 46.1175 103.88 45 102.5 45H90C88.62 45 87.5 46.1175 87.5 47.5V60C87.5 61.3825 88.62 62.5 90 62.5ZM92.5 50H100V57.5H92.5V50ZM112.5 77.5H80C78.62 77.5 77.5 78.6175 77.5 80V112.5C77.5 113.882 78.62 115 80 115H112.5C113.88 115 115 113.882 115 112.5V80C115 78.6175 113.88 77.5 112.5 77.5ZM110 110H82.5V82.5H110V110ZM90 105H102.5C103.88 105 105 103.882 105 102.5V90C105 88.6175 103.88 87.5 102.5 87.5H90C88.62 87.5 87.5 88.6175 87.5 90V102.5C87.5 103.882 88.62 105 90 105ZM92.5 92.5H100V100H92.5V92.5Z" fill="#D5E806"/>
</svg>
