<svg width="3562" height="440" viewBox="0 0 3562 440" fill="none" xmlns="http://www.w3.org/2000/svg">
<path d="M84 356.5C66 356.5 50.5 354.5 37.5 350.5C24.8333 346.833 13 342.667 2 338V272.5C12 279.833 24.1667 286.833 38.5 293.5C53.1667 299.833 69.3333 303 87 303C99 303 107.333 301 112 297C117 292.667 119.5 287.5 119.5 281.5C119.5 275.833 117 271.333 112 268C107 264.333 100.5 261.333 92.5 259C84.5 256.667 76 254.5 67 252.5C56 250.167 45.3333 246.333 35 241C25 235.333 16.6667 227.333 10 217C3.66666 206.333 0.5 192.667 0.5 176C0.5 160 3.66666 146.5 10 135.5C16.3333 124.5 24.6667 115.667 35 109C45.3333 102.333 56.5 97.6667 68.5 95C80.5 92 92.1667 90.6667 103.5 91C124.167 91.6667 140.5 94 152.5 98C164.5 101.667 175.667 106.5 186 112.5V171C174.667 164.667 163.333 158.833 152 153.5C141 147.833 128.333 145 114 145C101 145 91.6667 147.167 86 151.5C80.3333 155.5 77.5 160.667 77.5 167C77.5 176.667 81.6667 183.333 90 187C98.3333 190.667 108.167 194 119.5 197C127.833 199 136.5 201.5 145.5 204.5C154.5 207.167 162.833 211.167 170.5 216.5C178.167 221.5 184.333 228.667 189 238C194 247.333 196.5 259.333 196.5 274C196.167 294.333 190.667 310.5 180 322.5C169.333 334.5 155.5 343.167 138.5 348.5C121.5 353.833 103.333 356.5 84 356.5Z" fill="#D5E806"/>
<path d="M332.711 356.5C312.044 356.5 293.378 354 276.711 349C260.044 343.667 246.711 334.833 236.711 322.5C226.711 309.833 221.711 292.333 221.711 270C221.711 246.667 229.044 228 243.711 214C258.378 199.667 281.211 192.5 312.211 192.5C325.211 192.5 337.711 194.167 349.711 197.5C362.044 200.833 372.544 204.833 381.211 209.5V193.5C381.211 178.167 376.211 167.167 366.211 160.5C356.544 153.5 342.878 150 325.211 150C310.211 150 295.211 152.667 280.211 158C265.211 163 253.378 169.167 244.711 176.5V110.5C252.711 105.167 265.878 100.167 284.211 95.5C302.878 90.8333 323.378 88.5 345.711 88.5C355.378 88.5 366.378 89.6667 378.711 92C391.378 94 403.544 98.1667 415.211 104.5C426.878 110.5 436.378 119.333 443.711 131C451.378 142.667 455.211 158 455.211 177L454.711 296.5C454.378 318.167 443.544 333.667 422.211 343C400.878 352 371.044 356.5 332.711 356.5ZM295.711 271.5C295.711 281.5 299.711 289.5 307.711 295.5C316.044 301.167 325.211 304 335.211 304C352.211 304 364.044 302.833 370.711 300.5C377.711 298.167 381.211 293.5 381.211 286.5V247.5C369.211 243.5 356.378 241.5 342.711 241.5C311.378 241.5 295.711 251.5 295.711 271.5Z" fill="#D5E806"/>
<path d="M580.344 349H506.344V0.5H580.344V349Z" fill="#D5E806"/>
<path d="M745.98 356.5C720.314 356.5 697.814 351.333 678.48 341C659.147 330.333 644.147 315.333 633.48 296C622.814 276.667 617.48 253.333 617.48 226C617.48 182 628.314 148 649.98 124C671.98 99.6667 703.147 87.5 743.48 87.5C785.147 87.5 815.147 101 833.48 128C851.814 154.667 860.814 192.667 860.48 242H693.48C696.48 259 703.647 272 714.98 281C726.647 290 742.98 294.5 763.98 294.5C777.98 294.5 791.647 292.333 804.98 288C818.647 283.333 829.647 279.167 837.98 275.5V339.5C825.98 344.5 812.48 348.5 797.48 351.5C782.814 354.833 765.647 356.5 745.98 356.5ZM740.48 144.5C728.48 144.5 718.147 148.333 709.48 156C701.147 163.333 695.647 176.167 692.98 194.5H786.48C784.147 176.5 779.314 163.667 771.98 156C764.647 148.333 754.147 144.5 740.48 144.5Z" fill="#D5E806"/>
<path d="M972.242 356.5C954.242 356.5 938.742 354.5 925.742 350.5C913.076 346.833 901.242 342.667 890.242 338V272.5C900.242 279.833 912.409 286.833 926.742 293.5C941.409 299.833 957.576 303 975.242 303C987.242 303 995.576 301 1000.24 297C1005.24 292.667 1007.74 287.5 1007.74 281.5C1007.74 275.833 1005.24 271.333 1000.24 268C995.242 264.333 988.742 261.333 980.742 259C972.742 256.667 964.242 254.5 955.242 252.5C944.242 250.167 933.576 246.333 923.242 241C913.242 235.333 904.909 227.333 898.242 217C891.909 206.333 888.742 192.667 888.742 176C888.742 160 891.909 146.5 898.242 135.5C904.576 124.5 912.909 115.667 923.242 109C933.576 102.333 944.742 97.6667 956.742 95C968.742 92 980.409 90.6667 991.742 91C1012.41 91.6667 1028.74 94 1040.74 98C1052.74 101.667 1063.91 106.5 1074.24 112.5V171C1062.91 164.667 1051.58 158.833 1040.24 153.5C1029.24 147.833 1016.58 145 1002.24 145C989.242 145 979.909 147.167 974.242 151.5C968.576 155.5 965.742 160.667 965.742 167C965.742 176.667 969.909 183.333 978.242 187C986.576 190.667 996.409 194 1007.74 197C1016.08 199 1024.74 201.5 1033.74 204.5C1042.74 207.167 1051.08 211.167 1058.74 216.5C1066.41 221.5 1072.58 228.667 1077.24 238C1082.24 247.333 1084.74 259.333 1084.74 274C1084.41 294.333 1078.91 310.5 1068.24 322.5C1057.58 334.5 1043.74 343.167 1026.74 348.5C1009.74 353.833 991.576 356.5 972.242 356.5Z" fill="#D5E806"/>
<path d="M1569.3 99.8688C1569.3 98.6093 1570.6 96.762 1571.87 96.2153C1572.26 96.0446 1573.69 95.957 1575.04 96.0209C1577.38 96.1319 1577.78 96.2889 1584.02 99.5407C1606.21 111.106 1619.53 123.089 1633.95 144.45C1640.19 153.7 1643.25 160.234 1643.25 164.327C1643.25 166.229 1643.15 166.5 1642.07 167.571C1640.72 168.919 1639.14 169.113 1637.15 168.175C1635.5 167.4 1634.59 166.089 1632.7 161.77C1630.71 157.259 1627.16 151.03 1623.54 145.727C1612.21 129.144 1595.79 115.077 1578.99 107.579C1572.19 104.543 1569.3 102.243 1569.3 99.8688Z" fill="#D5E806"/>
<path d="M1560.67 123.388C1560.67 122.132 1561.79 120.511 1563.12 119.834C1564.99 118.891 1566.84 119.323 1572.24 121.963C1583.76 127.591 1595.83 137.154 1604.37 147.438C1608.26 152.116 1613.65 160.323 1616.04 165.231C1617.71 168.644 1618.14 169.875 1618.28 171.661C1618.46 173.826 1618.44 173.892 1617.24 175.083C1616.2 176.115 1615.78 176.297 1614.46 176.297C1613.22 176.297 1612.58 176.059 1611.4 175.167C1610.17 174.237 1609.41 173.097 1607.14 168.725C1603.72 162.162 1602.38 159.967 1599.08 155.549C1595.79 151.154 1587.07 142.458 1582.78 139.301C1579.42 136.827 1570.77 131.516 1567.06 129.65C1562.9 127.558 1560.67 125.37 1560.67 123.388Z" fill="#D5E806"/>
<path d="M1553.06 146.054C1553.06 144.194 1553.9 142.683 1555.24 142.1C1555.85 141.838 1556.78 141.618 1557.31 141.611C1560.35 141.568 1569.74 146.996 1576.04 152.444C1580.65 156.434 1583.15 159.116 1587.09 164.302C1592.63 171.61 1595.19 176.339 1595.21 179.291C1595.22 181.891 1592.41 184.089 1590.03 183.338C1588.54 182.869 1586.54 180.624 1584.09 176.683C1576.3 164.164 1570.39 158.354 1559.35 152.332C1554.89 149.905 1553.06 148.075 1553.06 146.054Z" fill="#D5E806"/>
<path d="M1500.5 178.384C1505.13 175.258 1511.35 172.693 1516.79 171.667C1518.54 171.336 1521.14 171.214 1524.9 171.287C1531.09 171.408 1534.49 172.107 1539.87 174.36C1543 175.673 1548.41 179.124 1551.24 181.619C1555.52 185.381 1560.53 193.395 1561.88 198.622C1563.51 204.95 1563.79 209.422 1562.88 214.604C1560.74 226.851 1552.9 236.775 1540.89 242.43C1535.65 244.901 1532.05 245.739 1525.77 245.949C1519.42 246.161 1515.99 245.739 1511.05 244.141C1496.72 239.503 1486.87 228.421 1484.43 214.182C1482.96 205.613 1485.3 195.507 1490.39 188.416C1492.49 185.496 1497.85 180.176 1500.5 178.384Z" fill="#D5E806"/>
<path d="M1259.95 356.5C1253.95 356.5 1244.62 355.833 1231.95 354.5C1219.62 353.167 1207.79 349.333 1196.45 343V439.5H1123.45V149.5C1123.45 135.167 1128.95 123.5 1139.95 114.5C1150.95 105.5 1165.45 98.8333 1183.45 94.5C1201.79 89.8333 1221.95 87.5 1243.95 87.5C1268.95 87.5 1291.12 91.8334 1310.45 100.5C1329.79 108.833 1344.79 123 1355.45 143C1366.45 163 1371.95 190.333 1371.95 225C1371.95 251 1367.45 274 1358.45 294C1349.79 313.667 1336.95 329 1319.95 340C1303.29 351 1283.29 356.5 1259.95 356.5ZM1237.95 296.5C1257.62 296.5 1272.45 291 1282.45 280C1292.45 269 1297.45 249.833 1297.45 222.5C1297.45 199.5 1293.45 181.667 1285.45 169C1277.45 156.333 1262.62 150 1240.95 150C1224.95 150 1213.45 151.667 1206.45 155C1199.79 158 1196.45 162 1196.45 167V286C1202.79 289.667 1209.62 292.333 1216.95 294C1224.62 295.667 1231.62 296.5 1237.95 296.5Z" fill="#006E52"/>
<path d="M1688.67 349V122.5C1693.33 118.833 1701.67 114.333 1713.67 109C1725.67 103.667 1739.33 99 1754.67 95C1770.33 90.6667 1786 88.5 1801.67 88.5C1817.33 88.5 1829.67 89.6667 1838.67 92C1847.67 94.3333 1854.5 97.3333 1859.17 101V155.5C1851.5 153.833 1841.5 152.667 1829.17 152C1816.83 151.333 1804.5 151.167 1792.17 151.5C1780.17 151.5 1770.5 152.167 1763.17 153.5V349H1688.67Z" fill="#006E52"/>
<path d="M1991.04 359C1961.7 359 1939.87 352.167 1925.54 338.5C1911.2 324.5 1904.04 304.833 1904.04 279.5V153H1867.04V96H1904.04V26.5H1982.04V96H2037.54V153H1982.04V270C1982.04 278.667 1983.87 285.167 1987.54 289.5C1991.2 293.5 1997.37 295.5 2006.04 295.5C2017.7 295.5 2028.2 292 2037.54 285V348.5C2030.2 352.5 2022.54 355.167 2014.54 356.5C2006.54 358.167 1998.7 359 1991.04 359Z" fill="#006E52"/>
<path d="M2176.58 356.5C2155.91 356.5 2137.24 354 2120.58 349C2103.91 343.667 2090.58 334.833 2080.58 322.5C2070.58 309.833 2065.58 292.333 2065.58 270C2065.58 246.667 2072.91 228 2087.58 214C2102.24 199.667 2125.08 192.5 2156.08 192.5C2169.08 192.5 2181.58 194.167 2193.58 197.5C2205.91 200.833 2216.41 204.833 2225.08 209.5V193.5C2225.08 178.167 2220.08 167.167 2210.08 160.5C2200.41 153.5 2186.74 150 2169.08 150C2154.08 150 2139.08 152.667 2124.08 158C2109.08 163 2097.24 169.167 2088.58 176.5V110.5C2096.58 105.167 2109.74 100.167 2128.08 95.5C2146.74 90.8333 2167.24 88.5 2189.58 88.5C2199.24 88.5 2210.24 89.6667 2222.58 92C2235.24 94 2247.41 98.1667 2259.08 104.5C2270.74 110.5 2280.24 119.333 2287.58 131C2295.24 142.667 2299.08 158 2299.08 177L2298.58 296.5C2298.24 318.167 2287.41 333.667 2266.08 343C2244.74 352 2214.91 356.5 2176.58 356.5ZM2139.58 271.5C2139.58 281.5 2143.58 289.5 2151.58 295.5C2159.91 301.167 2169.08 304 2179.08 304C2196.08 304 2207.91 302.833 2214.58 300.5C2221.58 298.167 2225.08 293.5 2225.08 286.5V247.5C2213.08 243.5 2200.24 241.5 2186.58 241.5C2155.24 241.5 2139.58 251.5 2139.58 271.5Z" fill="#006E52"/>
<path d="M2424.21 349H2350.21V0.5H2424.21V349Z" fill="#006E52"/>
<path d="M1559.64 90.7095C1548.35 88.5698 1536.05 87.5 1522.75 87.5C1480.75 87.5 1448.91 98 1427.25 119C1405.58 139.667 1394.75 173.833 1394.75 221.5C1394.41 311.5 1437.08 356.5 1522.75 356.5C1564.41 356.5 1596.41 345.167 1618.75 322.5C1641.08 299.5 1652.25 265.833 1652.25 221.5C1652.25 206.258 1651.06 192.369 1648.67 179.832L1577.11 199.996C1577.87 206.499 1578.25 213.667 1578.25 221.5C1578.25 246.167 1573.58 265 1564.25 278C1554.91 290.667 1541.08 297 1522.75 297C1504.08 297 1490.25 290.833 1481.25 278.5C1472.58 265.833 1468.25 246.833 1468.25 221.5C1468.25 194.167 1472.58 174.833 1481.25 163.5C1489.91 152.167 1503.75 146.5 1522.75 146.5C1527.03 146.5 1531.07 146.812 1534.87 147.436L1559.64 90.7095Z" fill="#006E52"/>
<path d="M2474 0H3482C3526.18 0 3562 35.8172 3562 80V354H2554C2509.82 354 2474 318.183 2474 274V0Z" fill="#006E52"/>
<path d="M2474 0H3482C3526.18 0 3562 35.8172 3562 80V354H2554C2509.82 354 2474 318.183 2474 274V0Z" fill="url(#paint0_radial)"/>
<path d="M2615.46 109.1H2643.58L2663.91 185.86L2717.11 109.1H2745.04L2716.35 244H2690.32L2709.32 154.7L2663.53 221.2H2649.28L2631.8 154.7L2612.8 244H2586.77L2615.46 109.1ZM2803.77 109.1H2827.14L2846.71 244H2819.73L2815.55 210.37H2772.04L2753.8 244H2726.82L2803.77 109.1ZM2814.98 191.94L2809.09 138.93L2780.21 191.94H2814.98ZM2884.24 109.1H2904.57L2950.55 197.64L2969.36 109.29H2995.39L2966.7 244H2945.61L2899.82 157.55L2881.58 244H2855.55L2884.24 109.1ZM3054.17 109.1H3077.54L3097.11 244H3070.13L3065.95 210.37H3022.44L3004.2 244H2977.22L3054.17 109.1ZM3065.38 191.94L3059.49 138.93L3030.61 191.94H3065.38ZM3153.59 244.95C3144.09 244.95 3135.67 242.543 3128.32 237.73C3121.1 232.79 3115.46 226.14 3111.41 217.78C3107.36 209.42 3105.33 199.983 3105.33 189.47C3105.33 178.577 3107.48 168.253 3111.79 158.5C3116.22 148.747 3122.18 140.133 3129.65 132.66C3137.12 125.06 3145.55 119.107 3154.92 114.8C3164.42 110.367 3174.24 108.15 3184.37 108.15C3196.4 108.15 3206.16 110.873 3213.63 116.32C3221.23 121.64 3226.3 128.733 3228.83 137.6L3206.22 152.04C3204.45 145.453 3201.09 140.387 3196.15 136.84C3191.21 133.167 3185.38 131.33 3178.67 131.33C3172.34 131.33 3166.38 132.913 3160.81 136.08C3155.24 139.12 3150.3 143.237 3145.99 148.43C3141.68 153.623 3138.26 159.513 3135.73 166.1C3133.32 172.687 3132.12 179.527 3132.12 186.62C3132.12 193.333 3133.26 199.35 3135.54 204.67C3137.82 209.863 3141.11 214.043 3145.42 217.21C3149.73 220.25 3154.86 221.77 3160.81 221.77C3173.1 221.77 3185.32 215.627 3197.48 203.34L3199.57 193.84H3173.92L3178.1 174.65H3225.41L3210.59 244H3188.93L3192.16 228.8C3179.75 239.567 3166.89 244.95 3153.59 244.95ZM3255.67 109.1H3343.07L3338.32 132.09H3276.76L3269.92 164.58H3322.93L3318.37 185.86H3265.36L3257.95 221.01H3321.03L3316.09 244H3226.98L3255.67 109.1ZM3331.12 244L3359.81 109.1H3416.81C3423.53 109.1 3429.29 110.873 3434.1 114.42C3439.04 117.967 3442.78 122.59 3445.31 128.29C3447.97 133.99 3449.3 140.007 3449.3 146.34C3449.3 152.8 3447.91 159.133 3445.12 165.34C3442.34 171.547 3438.54 177.12 3433.72 182.06C3428.91 187 3423.46 190.737 3417.38 193.27L3435.62 244H3405.98L3390.02 198.78H3366.65L3357.15 244H3331.12ZM3401.8 175.79C3405.22 175.79 3408.52 174.523 3411.68 171.99C3414.85 169.457 3417.38 166.163 3419.28 162.11C3421.31 158.057 3422.32 153.687 3422.32 149C3422.32 144.187 3421.12 140.197 3418.71 137.03C3416.43 133.737 3413.58 132.09 3410.16 132.09H3380.9L3371.59 175.79H3401.8Z" fill="white"/>
<defs>
<radialGradient id="paint0_radial" cx="0" cy="0" r="1" gradientUnits="userSpaceOnUse" gradientTransform="translate(3105 25.5) rotate(90.1873) scale(328.502 1009.63)">
<stop offset="0.12558" stop-color="#D5E806"/>
<stop offset="1" stop-color="white" stop-opacity="0"/>
</radialGradient>
</defs>
</svg>
