<svg width="150" height="150" viewBox="0 0 150 150" fill="none" xmlns="http://www.w3.org/2000/svg">
<path d="M75 150C116.421 150 150 116.421 150 75C150 33.5786 116.421 0 75 0C33.5786 0 0 33.5786 0 75C0 116.421 33.5786 150 75 150Z" fill="white"/>
<path d="M38.6405 71.412L43.6221 65.6639C45.5382 63.4605 48.4122 62.1193 51.2863 62.1193H83.7631L81.6554 72.6574C81.0806 75.3399 84.1463 77.2559 86.3497 75.6273L113.462 55.5089C115.09 54.3593 115.09 51.8685 113.462 50.7189L86.3497 30.6005C84.1463 28.9719 81.0806 30.8879 81.6554 33.5703L83.7631 44.0127H50.6157C42.1851 44.0127 35.3832 50.8147 35.3832 59.2452V70.1666C35.3832 71.891 37.4908 72.7532 38.6405 71.412Z" fill="#D5E806"/>
<path d="M112.216 76.4895C110.492 75.8189 108.672 76.2979 107.426 77.7349L102.828 83.0998C101.486 84.6327 99.5704 85.4949 97.4627 85.4949H69.9676L71.3089 78.693C71.7879 76.4895 70.8298 74.2861 68.9138 73.0407C66.9978 71.7952 64.6027 71.891 62.7825 73.2323L37.2034 92.2968C35.8622 93.3506 35 94.8834 35 96.6079C35 98.3323 35.7664 99.9609 37.2034 100.919L62.7825 119.888C63.7405 120.558 64.8901 120.942 66.0398 120.942C66.9978 120.942 68.0516 120.654 68.9138 120.079C70.8298 118.834 71.7879 116.63 71.3089 114.427L69.9676 107.625H98.0375C107.426 107.625 114.994 100.057 114.994 90.6682V80.5132C115.09 78.693 113.941 77.0643 112.216 76.4895ZM109.917 90.764C109.917 97.2785 104.648 102.548 98.1333 102.548H66.8062C66.0398 102.548 65.2733 102.931 64.7943 103.506C64.3153 104.08 64.1237 104.847 64.2195 105.613L66.2314 115.481C66.2314 115.577 66.2314 115.672 66.1356 115.768C65.944 115.864 65.944 115.768 65.8482 115.768L40.2691 96.7995C40.2691 96.7995 40.1733 96.7037 40.1733 96.6079C40.1733 96.5121 40.2691 96.4163 40.2691 96.4163L65.8482 77.4475C65.944 77.4475 65.944 77.3517 66.1356 77.4475C66.3272 77.5433 66.2314 77.6391 66.2314 77.7349L64.2195 87.6025C64.0279 88.3689 64.2195 89.1353 64.7943 89.7102C65.2733 90.285 66.0398 90.6682 66.8062 90.6682H97.4627C101.007 90.6682 104.36 89.1353 106.66 86.4529L109.821 82.8124V90.764H109.917Z" fill="#006E52"/>
</svg>
