<svg width="150" height="150" viewBox="0 0 150 150" fill="none" xmlns="http://www.w3.org/2000/svg">
<circle cx="75" cy="75" r="75" fill="white"/>
<path d="M90.3138 65.1958C90.1647 64.9941 89.9484 64.8684 89.7029 64.7851C89.5026 65.5115 89.1621 66.2145 88.6681 66.707C88.1639 67.2097 87.5019 67.4932 86.6601 67.3339C86.6601 66.5287 86.6221 65.8067 86.5694 65.1198C85.9395 57.0349 81.8722 56.8887 80.4371 57.8796C78.8835 58.9567 75.772 62.4263 71.4636 59.4361C67.1551 56.4444 64.8825 56.3246 63.6856 58.359C62.9753 59.5691 62.7297 62.5081 62.6479 64.6974C62.5909 66.1881 62.6099 67.3339 62.6099 67.3339C62.1422 67.3471 61.7739 67.2565 61.4685 67.1016C60.6983 66.7084 60.3811 65.852 60.2262 64.8626C60.0625 64.9444 59.9164 65.0482 59.8082 65.1958C59.3318 65.8418 59.5349 67.2477 59.5349 68.224C59.5349 70.1838 60.7187 71.7725 62.189 71.8017C64.0451 78.906 69.1004 84.0124 75.0588 84.0124C81.0187 84.0124 86.074 78.906 87.9301 71.8017C89.4003 71.7725 90.5841 70.1853 90.5841 68.224C90.5871 67.2477 90.7887 65.8418 90.3138 65.1958Z" fill="#D5E806"/>
<path d="M103.061 92.7038C97.2383 86.757 89.8695 84.347 84.1829 83.397C82.793 84.8746 77.6369 90.3142 74.7139 94.8901C74.7139 94.9106 74.7139 94.9296 74.7139 94.9515C74.7139 94.9427 74.7373 94.9296 74.7154 94.9194C74.6905 94.9311 74.7139 94.9442 74.7139 94.9515C74.7139 94.9296 74.7139 94.9106 74.7139 94.8901C71.791 90.2382 67.0002 85.0076 65.4481 83.4643C59.8243 84.4595 52.7449 86.8914 47.0554 92.7038C46.8171 97.7283 47.2994 104.428 49.4522 107.301C51.396 109.889 54.7062 114.81 69.7069 115.756C69.7069 115.756 75.0281 116.299 80.2544 115.764C95.3939 114.845 98.7173 109.897 100.667 107.301C102.82 104.428 103.301 97.7269 103.061 92.7038Z" fill="#D5E806"/>
<path d="M54.5426 48.2602C56.0269 48.2602 57.2302 47.0568 57.2302 45.5725C57.2302 44.0881 56.0269 42.8848 54.5426 42.8848C53.0582 42.8848 51.8549 44.0881 51.8549 45.5725C51.8549 47.0568 53.0582 48.2602 54.5426 48.2602Z" fill="#006E52"/>
<path d="M51.8548 59.0955C53.3392 59.0955 54.5425 57.8922 54.5425 56.4079C54.5425 54.9235 53.3392 53.7202 51.8548 53.7202C50.3705 53.7202 49.1671 54.9235 49.1671 56.4079C49.1671 57.8922 50.3705 59.0955 51.8548 59.0955Z" fill="#006E52"/>
<path d="M65.0725 45.5725C66.5569 45.5725 67.7602 44.3692 67.7602 42.8848C67.7602 41.4005 66.5569 40.1971 65.0725 40.1971C63.5881 40.1971 62.3848 41.4005 62.3848 42.8848C62.3848 44.3692 63.5881 45.5725 65.0725 45.5725Z" fill="#006E52"/>
<path d="M70.4464 36.3724C71.9299 36.3724 73.1326 35.1698 73.1326 33.6862C73.1326 32.2027 71.9299 31 70.4464 31C68.9628 31 67.7602 32.2027 67.7602 33.6862C67.7602 35.1698 68.9628 36.3724 70.4464 36.3724Z" fill="#006E52"/>
<path d="M81.6779 39.0002L69.3678 47.0003C69.3678 47.0003 72.1417 51.2152 77.7552 54.5109C83.3703 57.8065 90.4731 60.1493 90.4731 60.1493L92.2283 45.5739L93.9835 31L81.6779 39.0002Z" fill="#006E52"/>
</svg>
