<svg width="100" height="100" viewBox="0 0 100 100" fill="none" xmlns="http://www.w3.org/2000/svg">
<rect x="2.5" y="2.5" width="95" height="95" rx="47.5" fill="white" stroke="#006E52" stroke-width="5"/>
<path d="M77.6529 21.7023C77.1608 21.4755 76.6071 21.4453 76.0953 21.6362C75.7572 21.7557 75.4598 21.9611 75.2312 22.2336C74.7627 22.7918 74.6328 23.5627 74.8785 24.2435L81.237 41.719C81.6218 42.7761 82.7944 43.3257 83.8453 42.9357C84.1835 42.8162 84.486 42.6047 84.71 42.3378C85.1784 41.7795 85.3139 41.0143 85.0622 40.3285L78.7038 22.854C78.5127 22.3411 78.145 21.9292 77.6529 21.7023Z" fill="#D5E806"/>
<path d="M41.7392 79.9429C41.019 79.8142 40.2844 80.087 39.8211 80.6392C39.592 80.9122 39.4408 81.2403 39.3757 81.589C39.1803 82.6968 39.9251 83.7561 41.0269 83.9464L59.346 87.1789C60.0545 87.3081 60.7897 87.0357 61.253 86.4836C61.4821 86.2105 61.6384 85.8764 61.7035 85.5277C61.8938 84.426 61.155 83.3718 60.0523 83.1703L41.7392 79.9429Z" fill="#D5E806"/>
<path d="M16.4273 40.8672L28.382 26.6202C29.1045 25.7592 28.9927 24.4753 28.1311 23.7523C27.2755 23.0344 25.9862 23.1416 25.2683 23.9971L13.3085 38.2502C12.5906 39.1058 12.7039 40.4003 13.5594 41.1181C14.421 41.8411 15.7094 41.7228 16.4273 40.8672Z" fill="#D5E806"/>
<path d="M29.364 27.4339L18.229 40.704C17.0936 42.0571 17.2703 44.0769 18.6174 45.2072L22.0153 48.0584C22.068 48.0819 22.1206 48.1054 22.1692 48.1462L34.2682 58.2985C35.2512 59.1233 36.7131 58.9954 37.5379 58.0124C38.3576 57.0355 38.2348 55.5676 37.2518 54.7428L30.5348 49.1066C30.2679 48.8825 30.2327 48.4808 30.4567 48.2138C30.6808 47.9468 31.0876 47.9056 31.3546 48.1297L43.4536 58.282C44.436 59.1063 45.8985 58.9789 46.7182 58.002C46.9982 57.6683 47.1719 57.2764 47.2312 56.8608C46.0292 56.6173 45.0264 55.7656 44.5909 54.573C44.4131 54.0825 44.3459 53.5712 44.3902 53.05L35.4464 45.5452C35.3978 45.5045 35.3605 45.4628 35.3282 45.415L34.9095 45.0637C34.6425 44.8397 34.6074 44.438 34.8314 44.171C35.0605 43.8979 35.4622 43.8628 35.7292 44.0868L44.7823 51.6832C45.0712 51.1295 45.4967 50.6593 46.0293 50.3204C45.2396 49.9059 44.6344 49.2224 44.33 48.3775C44.2868 48.2689 44.2547 48.1592 44.2226 48.0496C44.0004 47.1807 44.105 46.2551 44.5357 45.4584L39.1232 40.9169C38.8563 40.6929 38.8211 40.2911 39.0451 40.0241C39.2742 39.7511 39.676 39.716 39.943 39.94L45.325 44.4561C45.3718 44.4126 45.4247 44.3743 45.4766 44.3248L45.4705 44.3197C44.6423 43.9142 44.0129 43.2103 43.7004 42.3381C43.3688 41.4394 43.4127 40.4629 43.8203 39.5951C44.089 39.0038 44.5186 38.5164 45.0381 38.1561L40.4994 34.3477C39.298 33.3396 39.1399 31.5318 40.1531 30.3243C40.6469 29.7358 41.3626 29.3757 42.1224 29.3205L42.1341 29.3189L46.7719 28.8687C47.3973 28.8135 47.9566 28.529 48.3537 28.0557C48.756 27.5763 48.94 26.9749 48.8858 26.3618C48.7791 25.0842 47.6505 24.1372 46.3738 24.2539L30.1154 25.6758C30.0463 26.3003 29.7968 26.9181 29.364 27.4339Z" fill="#F2C490"/>
<path d="M74.1165 25.8799C73.8271 25.0787 73.2421 24.4327 72.4685 24.0731C71.6949 23.7135 70.8259 23.6771 70.0247 23.9664L65.8564 25.4837C65.8086 25.516 65.7603 25.5489 65.7009 25.5704L50.8585 30.9732C49.6547 31.4097 49.0407 32.7453 49.4712 33.9451C49.6852 34.5279 50.1136 34.9908 50.6766 35.2564C51.2335 35.5169 51.8653 35.5404 52.4431 35.3324L60.6873 32.3341C61.0142 32.2155 61.3828 32.3801 61.5024 32.7182C61.6209 33.0452 61.4503 33.4087 61.1183 33.5333L60.4202 33.7861L60.4151 33.7922L52.8847 36.5312L46.2799 38.9313C45.697 39.1453 45.2341 39.5737 44.9736 40.1306C44.708 40.6936 44.6846 41.3254 44.8926 41.9031C45.1005 42.4809 45.5229 42.9387 46.0747 43.2053C46.0808 43.2104 46.0869 43.2155 46.0869 43.2155L46.0929 43.2206C46.5496 43.428 47.0494 43.4855 47.5355 43.3867L61.3098 38.3697C61.3697 38.3476 61.4306 38.3366 61.4924 38.3369L61.9996 38.1514C62.3317 38.0267 62.6952 38.1973 62.8198 38.5294C62.8951 38.7477 62.8487 38.9879 62.7061 39.1578C62.6349 39.2427 62.55 39.3069 62.4357 39.3445L48.302 44.4941C48.166 44.5454 48.0228 44.5804 47.8848 44.6094C47.8797 44.6154 47.8797 44.6154 47.8737 44.6103L46.91 44.9701C46.4957 45.1188 46.1419 45.3803 45.8791 45.7181C45.8536 45.7485 45.8231 45.7849 45.8088 45.8142L45.794 45.8318C45.4098 46.3883 45.2847 47.0796 45.46 47.7333C45.478 47.8104 45.5001 47.8703 45.5232 47.9414C45.7372 48.5243 46.1657 48.9872 46.7226 49.2477C47.2855 49.5133 47.9173 49.5367 48.4951 49.3287L49.9766 48.7831L50.3909 48.6344C50.4071 48.6273 50.4234 48.6203 50.4339 48.6188L56.2919 46.4927C56.3021 46.4806 56.3127 46.4802 56.3244 46.4786L56.4011 46.45L63.4847 43.8737C63.8168 43.749 64.1803 43.9196 64.3049 44.2517C64.3803 44.47 64.3338 44.7102 64.1912 44.8801C64.12 44.9651 64.0356 45.0287 63.9208 45.0668L62.025 45.7612C62.025 45.7612 62.0199 45.7672 62.0139 45.7621L56.7828 47.6698C56.7767 47.6647 56.766 47.6774 56.7554 47.6778L50.8324 49.8321C50.8162 49.8391 50.805 49.8401 50.7894 49.8477L49.8958 50.1732L48.9372 50.527C48.9312 50.5219 48.9312 50.5219 48.9312 50.5219L47.1714 51.165C46.4088 51.4453 45.858 52.0895 45.6971 52.8851C45.693 52.9023 45.6879 52.9084 45.6888 52.9195C45.6063 53.3259 45.6434 53.75 45.7841 54.1368C46.1157 55.0355 46.9443 55.6377 47.9077 55.6602C48.2007 55.6683 48.4889 55.6206 48.756 55.5242L55.6324 53.0222L68.4852 48.3394C68.4912 48.3445 68.4912 48.3445 68.4912 48.3445C69.2051 48.0853 69.9787 48.1244 70.6703 48.4462C71.3568 48.7741 71.8786 49.3463 72.1383 50.0596C72.4036 50.7785 72.3614 51.5806 72.033 52.2677C72.0279 52.2737 72.0279 52.2737 72.0279 52.2737L70.0886 56.5196C69.8285 57.0882 69.7984 57.7144 70.013 58.2966C70.2276 58.88 70.651 59.349 71.213 59.6034C71.776 59.869 72.4026 59.8985 72.9849 59.684C73.5683 59.4704 74.0306 59.0415 74.2911 58.4846L81.1941 43.69C80.6832 43.313 80.2728 42.7928 80.0427 42.1552L74.1225 25.8849L74.1165 25.8799Z" fill="#D19556"/>
<path d="M58.8793 66.614L60.4065 57.9795C60.4055 57.9683 60.4106 57.9623 60.4147 57.945L61.408 52.2746L56.4066 54.0958L54.601 64.3683C54.5897 64.4312 54.5611 64.4899 54.5375 64.5425L54.4486 65.0676C54.4248 65.1821 54.3778 65.2874 54.3116 65.3663C54.1691 65.5362 53.9406 65.6237 53.7065 65.5823C53.3588 65.5284 53.1327 65.1939 53.1861 64.8458L54.9946 54.6068L49.9875 56.4335L49.1032 61.4922C49.0981 61.4983 49.093 61.5044 49.0997 61.51L48.7451 63.4976C48.7265 63.606 48.6734 63.7062 48.6021 63.7912C48.4596 63.9611 48.2372 64.0536 48.0087 64.0067C47.6611 63.9528 47.4299 63.6244 47.4883 63.2702L48.6155 56.8746C48.5881 56.8826 48.5495 56.8916 48.516 56.8945C48.4426 57.5981 48.159 58.2701 47.6957 58.8222C46.6265 60.0965 44.8404 60.4383 43.403 59.7595L42.3721 65.5844C42.2856 66.0805 42.0721 66.5321 41.7565 66.9083C41.5935 67.1025 41.4063 67.2763 41.1888 67.4246C40.5636 67.8617 39.8075 68.0234 39.0595 67.8921C38.3003 67.7617 37.6258 67.3198 37.1999 66.6936C37.1939 66.6885 37.1939 66.6885 37.1939 66.6885L34.4888 62.8883C34.1295 62.38 33.5992 62.0385 32.988 61.9289C32.3768 61.8193 31.7648 61.9572 31.2565 62.3165C30.2074 63.0493 29.952 64.4997 30.6847 65.5488L40.047 78.9159C40.6432 78.6613 41.2993 78.5707 41.9554 78.6871L59.0066 81.6931L59.0127 81.6982C59.8519 81.8441 60.7014 81.6573 61.4008 81.1688C62.1002 80.6803 62.5642 79.9426 62.7151 79.0973L63.4865 74.74C63.4755 74.6791 63.4757 74.6172 63.4881 74.5655L66.2308 59.0099C66.4516 57.7486 65.605 56.5408 64.3419 56.3196C63.7368 56.2151 63.1188 56.3479 62.6162 56.7016C62.1079 57.061 61.7708 57.5846 61.6618 58.1963C61.6618 58.1963 61.6628 58.2075 61.6577 58.2135L60.2669 66.094L60.1407 66.8359C60.1163 66.95 60.0693 67.0553 60.0031 67.1341C59.8606 67.304 59.6327 67.392 59.398 67.3501C59.0565 67.2901 58.8254 66.9617 58.8793 66.614Z" fill="#855227"/>
</svg>
