<svg xmlns="http://www.w3.org/2000/svg" width="183" height="35" viewBox="0 0 183 35">
    <g fill="none" fill-rule="evenodd">
        <g transform="translate(0 3.24)">
            <rect width="8.748" height="8.605" fill="#00B442" rx=".81"/>
            <rect width="8.748" height="8.605" x="10.206" fill="#00B442" rx=".81"/>
            <rect width="8.748" height="8.605" y="10.039" fill="#FF5B00" rx=".81"/>
            <rect width="8.748" height="8.605" x="10.206" y="10.039" fill="#00B442" rx=".81"/>
            <rect width="8.748" height="8.605" x="10.206" y="20.555" fill="#FF5B00" rx=".81"/>
            <rect width="8.748" height="8.605" x="20.412" y="20.555" fill="#00B442" rx=".81"/>
            <rect width="8.748" height="8.605" x="20.412" y="10.039" fill="#00B442" rx=".81"/>
        </g>
        <path fill="#FFF" fill-rule="nonzero" d="M44.903 28V13.555h.176L55.072 28h3.417V6.793h-3.82v14.455h-.187L44.499 6.793h-3.438V28h3.842zm22.17.321c2.496 0 3.987-1.17 4.67-2.506h.125V28h3.604V17.355c0-4.204-3.428-5.468-6.462-5.468-3.345 0-5.913 1.492-6.741 4.391l3.5.497c.373-1.087 1.429-2.02 3.262-2.02 1.74 0 2.692.891 2.692 2.455v.062c0 1.077-1.129 1.129-3.935 1.43-3.086.33-6.037 1.252-6.037 4.835 0 3.127 2.288 4.784 5.323 4.784zm.974-2.754c-1.564 0-2.682-.715-2.682-2.092 0-1.44 1.253-2.04 2.93-2.278.984-.135 2.952-.383 3.438-.777v1.874c0 1.771-1.429 3.273-3.686 3.273zm13.089-15.73c1.19 0 2.164-.911 2.164-2.03 0-1.128-.973-2.04-2.164-2.04-1.201 0-2.175.912-2.175 2.04 0 1.119.974 2.03 2.175 2.03zM83 28V12.095H79.25V28H83zm7.6 0v-9.35c0-2.02 1.523-3.449 3.583-3.449.632 0 1.419.114 1.74.218V11.97c-.342-.062-.932-.103-1.346-.103-1.823 0-3.345 1.035-3.925 2.878h-.166v-2.65h-3.634V28H90.6zm12.095.321c2.496 0 3.987-1.17 4.67-2.506h.125V28h3.603V17.355c0-4.204-3.427-5.468-6.461-5.468-3.345 0-5.913 1.492-6.742 4.391l3.5.497c.373-1.087 1.43-2.02 3.262-2.02 1.74 0 2.693.891 2.693 2.455v.062c0 1.077-1.13 1.129-3.935 1.43-3.086.33-6.037 1.252-6.037 4.835 0 3.127 2.288 4.784 5.322 4.784zm.973-2.754c-1.563 0-2.681-.715-2.681-2.092 0-1.44 1.252-2.04 2.93-2.278.984-.135 2.951-.383 3.438-.777v1.874c0 1.771-1.43 3.273-3.687 3.273zm13.514 2.66c1.222 0 2.268-1.014 2.278-2.277-.01-1.243-1.056-2.258-2.278-2.258-1.263 0-2.289 1.015-2.278 2.258-.01 1.263 1.015 2.278 2.278 2.278zm13.1.084c3.996 0 6.544-2.372 6.813-5.747h-3.583c-.321 1.708-1.553 2.692-3.2 2.692-2.34 0-3.852-1.957-3.852-5.209 0-3.21 1.543-5.136 3.852-5.136 1.802 0 2.91 1.16 3.2 2.692h3.583c-.26-3.448-2.951-5.716-6.835-5.716-4.66 0-7.6 3.366-7.6 8.222 0 4.816 2.868 8.202 7.621 8.202zm16.837 0c4.66 0 7.62-3.283 7.62-8.202 0-4.929-2.96-8.222-7.62-8.222s-7.622 3.293-7.622 8.222c0 4.92 2.962 8.202 7.622 8.202zm.02-3.003c-2.578 0-3.841-2.3-3.841-5.209 0-2.91 1.263-5.24 3.841-5.24 2.537 0 3.8 2.33 3.8 5.24s-1.263 5.209-3.8 5.209zM161.657 28v-9.672c0-1.957 1.305-3.282 2.92-3.282 1.585 0 2.672 1.066 2.672 2.702V28h3.676v-9.92c0-1.792 1.067-3.034 2.879-3.034 1.512 0 2.713.89 2.713 2.858V28h3.759V17.324c0-3.552-2.05-5.437-4.97-5.437-2.31 0-4.07 1.14-4.775 2.91h-.165c-.611-1.802-2.154-2.91-4.298-2.91-2.133 0-3.727 1.098-4.39 2.91h-.187v-2.702h-3.582V28h3.748z"/>
    </g>
</svg>
