<svg width="101" height="100" viewBox="0 0 101 100" fill="none" xmlns="http://www.w3.org/2000/svg">
<rect x="2.5" y="2.5" width="95" height="95" rx="47.5" fill="white" stroke="#006E52" stroke-width="5"/>
<path fill-rule="evenodd" clip-rule="evenodd" d="M59.7779 50.9194C62.6834 48.1922 64.6207 43.2949 64.6207 37.7069C64.6207 36.538 64.5359 35.3994 64.3753 34.3045L64.5787 33.5692C64.5787 33.5692 66.7316 33.0945 67.8367 33.0851C70.268 33.0644 72.7042 33.7758 74.7049 35.2424C77.6051 37.3683 79.4557 41.1753 78.8214 46.0949C78.7401 47.427 78.1293 48.6342 77.3465 49.9913C76.6854 51.1375 75.8636 52.3573 74.9981 53.642C74.8211 53.9046 74.6423 54.17 74.4627 54.438C72.351 57.589 70.1218 61.0925 69.2896 64.1679C69.2884 64.1716 69.289 64.1756 69.2895 64.1795C69.2901 64.1831 69.2906 64.1867 69.2896 64.1898C69.0426 65.1114 66.8384 65.2009 66.5379 64.0797C65.6826 60.9558 63.4565 57.6115 61.3633 54.467C60.7367 53.5257 60.1221 52.6024 59.5597 51.7082L59.7779 50.9194Z" fill="#F2C490"/>
<path fill-rule="evenodd" clip-rule="evenodd" d="M43.1386 19.0003C48.3023 19.0281 53.4851 20.878 57.1831 24.6137C60.8745 28.3429 62.9806 33.9691 62.026 41.1237C61.9021 43.1699 60.8483 45.2794 59.4284 47.6617C57.9893 50.0763 56.1046 52.7486 54.1452 55.5865C50.2537 61.2232 46.0739 67.5314 44.4594 73.3072C43.7725 75.0582 42.1573 75.0673 41.6857 73.3072C40.0839 67.5284 36.0497 61.5059 32.242 55.9827C28.4187 50.4371 24.7485 45.5164 24.2511 40.9696C24.2494 40.956 24.2309 40.9392 24.2291 40.9256C23.2757 33.7664 25.3762 28.1526 29.072 24.4596C32.7749 20.7597 37.9748 18.9725 43.1386 19.0003Z" fill="#D19556"/>
<path fill-rule="evenodd" clip-rule="evenodd" d="M48.945 69.0709C49.0249 69.0709 49.1048 69.078 49.1837 69.0865C52.0695 69.4753 54.545 70.1129 56.4206 70.9982C57.3584 71.4409 58.1545 71.9418 58.7793 72.5839C59.4041 73.2261 59.8744 74.0816 59.8744 75.041C59.8744 76.3174 59.0811 77.3463 58.1038 78.0868C57.1266 78.8273 55.8721 79.3985 54.377 79.8785C51.3866 80.8387 47.4196 81.398 43.0358 81.398C38.6519 81.398 34.6841 80.8387 31.6938 79.8785C30.1986 79.3985 28.9442 78.8273 27.967 78.0868C26.9897 77.3463 26.1971 76.3174 26.1971 75.041C26.1971 74.0932 26.6587 73.2488 27.2712 72.6121C27.8837 71.9753 28.6635 71.4757 29.5831 71.0334C31.4224 70.1486 33.8507 69.5044 36.685 69.1044C37.0531 69.0466 37.4428 69.1424 37.7422 69.3641C38.0416 69.5858 38.2468 69.9308 38.2988 70.2998C38.3508 70.6687 38.2489 71.0569 38.0224 71.3527C37.796 71.6486 37.4478 71.8483 37.0781 71.8945C34.4465 72.2659 37.0781 71.8945 38.0224 71.3527C38.2988 70.6844 37.0781 71.8945 37.7422 71.6271C40.3362 72.4599 38.897 78.5806 43.0358 78.5806C47.1745 78.5806 46.2138 72.7117 48.8078 71.8788C47.9984 71.4968 47.3412 71.1866 48.8078 71.8788C48.4574 71.8373 48.1251 71.6589 47.8973 71.3896C47.6694 71.1203 47.5484 70.7631 47.5656 70.4108C47.5828 70.0585 47.7381 69.7146 47.9912 69.4689C48.2442 69.223 48.5924 69.0779 48.945 69.0709Z" fill="#D5E806"/>
<path fill-rule="evenodd" clip-rule="evenodd" d="M43.1309 30.9179C47.0008 30.9179 50.1688 34.0905 50.1688 37.962C50.1688 41.8335 47.0008 45.0062 43.1309 45.0062C39.2611 45.0062 36.0922 41.8335 36.0922 37.962C36.0922 34.0905 39.2611 30.9179 43.1309 30.9179Z" fill="white"/>
<path fill-rule="evenodd" clip-rule="evenodd" d="M72.7895 61.4978C74.0348 61.7197 75.089 62.0007 75.9525 62.405C76.3842 62.6071 76.776 62.8354 77.1295 63.1857C77.483 63.5361 77.8221 64.0906 77.8221 64.7473C77.8221 65.7803 77.1144 66.4212 76.4907 66.808C75.8669 67.1948 75.1415 67.4569 74.2887 67.6808C72.5833 68.1286 70.3718 68.3797 67.9185 68.3797C65.4785 68.3797 63.2743 68.1287 61.5724 67.6808C60.7214 67.4569 59.9967 67.1949 59.3735 66.808C58.7504 66.4212 58.0429 65.7803 58.0429 64.7473C58.0429 64.1077 58.3651 63.5627 58.7067 63.213C59.0482 62.8634 59.4284 62.6333 59.847 62.4307C60.6843 62.0254 61.7043 61.7455 62.9132 61.5274C63.2788 61.4554 63.6721 61.5359 63.9799 61.7461C64.2877 61.9562 64.5061 62.2931 64.5722 62.6598C64.6384 63.0266 64.5514 63.4185 64.3363 63.7228C64.1213 64.0272 63.781 64.2401 63.4132 64.3003C58.7865 65.0908 67.015 65.5586 67.9185 65.5624C68.908 65.5624 77.0096 65.1248 72.295 64.2722C71.9471 64.2159 71.6231 64.0231 71.4072 63.7444C71.1913 63.4658 71.0858 63.104 71.1179 62.7529C71.1501 62.4019 71.3197 62.0652 71.5827 61.8304C72.006 61.5274 72.3457 61.4746 72.7895 61.4978V61.4978Z" fill="#D5E806"/>
<path fill-rule="evenodd" clip-rule="evenodd" d="M68.5457 41.0138C70.589 41.0138 72.2722 42.6996 72.2722 44.7431C72.2722 46.7865 70.6039 48.4966 68.5457 48.4966C66.4748 48.4966 64.795 46.7865 64.795 44.7431C64.795 42.6996 66.4895 41.0138 68.5457 41.0138Z" fill="white"/>
</svg>
